<svg width="39" height="39" viewBox="0 0 39 39" fill="none" xmlns="http://www.w3.org/2000/svg">
<path d="M36.3676 28.2317V33.3273C36.3696 33.8004 36.2727 34.2686 36.0832 34.702C35.8937 35.1355 35.6157 35.5245 35.2671 35.8443C34.9186 36.1641 34.507 36.4076 34.0589 36.5591C33.6108 36.7107 33.136 36.767 32.6649 36.7244C27.4382 36.1565 22.4176 34.3705 18.0065 31.5099C13.9026 28.9021 10.4232 25.4227 7.81537 21.3187C4.94482 16.8876 3.15841 11.8426 2.60088 6.59248C2.55844 6.12279 2.61426 5.64939 2.76479 5.20245C2.91533 4.75551 3.15727 4.3448 3.47523 3.99649C3.79319 3.64817 4.18018 3.36988 4.61159 3.17933C5.04299 2.98877 5.50934 2.89014 5.98096 2.88969H11.0765C11.9009 2.88158 12.7 3.17348 13.325 3.71099C13.95 4.24849 14.3582 4.99493 14.4736 5.81116C14.6887 7.44186 15.0875 9.043 15.6626 10.584C15.8911 11.192 15.9406 11.8527 15.8051 12.4879C15.6696 13.1231 15.3549 13.7061 14.8982 14.1679L12.7411 16.3251C15.1591 20.5774 18.6799 24.0983 22.9323 26.5162L25.0894 24.3591C25.5512 23.9024 26.1343 23.5877 26.7695 23.4522C27.4047 23.3168 28.0654 23.3662 28.6733 23.5948C30.2143 24.1698 31.8155 24.5687 33.4462 24.7837C34.2713 24.9001 35.0248 25.3157 35.5635 25.9515C36.1021 26.5872 36.3883 27.3987 36.3676 28.2317Z" stroke="currentColor" stroke-width="4" stroke-linecap="round" stroke-linejoin="round"/>
</svg>
